<svg width="24" height="24" viewBox="0 0 24 24" fill="none" xmlns="http://www.w3.org/2000/svg">
<path d="M12 24C18.6274 24 24 18.6274 24 12C24 5.37258 18.6274 0 12 0C5.37258 0 0 5.37258 0 12C0 18.6274 5.37258 24 12 24Z" fill="white"/>
<path d="M20.0047 12.0003C20.0047 11.0265 19.2173 10.2532 18.2577 10.2532C17.7853 10.2532 17.3555 10.4393 17.0406 10.7401C15.8378 9.88089 14.1909 9.32249 12.358 9.25096L13.1598 5.49911L15.766 6.05751C15.7948 6.71627 16.3388 7.24611 17.012 7.24611C17.6993 7.24611 18.2577 6.68771 18.2577 6.00012C18.2577 5.31279 17.6993 4.75439 17.012 4.75439C16.5251 4.75439 16.0954 5.0408 15.8949 5.45613L12.9882 4.84034C12.9022 4.82593 12.8163 4.84034 12.7589 4.88332C12.6873 4.92629 12.6444 4.99783 12.6302 5.08378L11.7422 9.2651C9.88066 9.32249 8.20519 9.88089 6.98803 10.7545C6.66022 10.4414 6.22417 10.267 5.77087 10.2677C4.79714 10.2677 4.02386 11.0551 4.02386 12.0147C4.02386 12.7305 4.45334 13.3319 5.05498 13.6042C5.02616 13.7758 5.01201 13.9477 5.01201 14.134C5.01201 16.8259 8.14807 19.0171 12.0144 19.0171C15.8808 19.0171 19.0169 16.8403 19.0169 14.134C19.0169 13.9621 19.0024 13.7758 18.9739 13.6042C19.5753 13.3319 20.0047 12.7161 20.0047 12.0003ZM8.00474 13.246C8.00474 12.5587 8.56314 12.0003 9.25073 12.0003C9.93805 12.0003 10.4964 12.5587 10.4964 13.246C10.4964 13.9333 9.93805 14.492 9.25073 14.492C8.56314 14.5061 8.00474 13.9333 8.00474 13.246ZM14.9786 16.5539C14.1194 17.4132 12.4869 17.4705 12.0144 17.4705C11.5276 17.4705 9.89508 17.3987 9.05 16.5539C8.92135 16.425 8.92135 16.2246 9.05 16.0956C9.17892 15.967 9.37938 15.967 9.50831 16.0956C10.0526 16.6399 11.1982 16.8259 12.0144 16.8259C12.8307 16.8259 13.9905 16.6399 14.5203 16.0956C14.6492 15.967 14.8497 15.967 14.9786 16.0956C15.0931 16.2246 15.0931 16.425 14.9786 16.5539ZM14.7493 14.5061C14.062 14.5061 13.5036 13.9477 13.5036 13.2604C13.5036 12.5731 14.062 12.0147 14.7493 12.0147C15.4369 12.0147 15.9953 12.5731 15.9953 13.2604C15.9953 13.9333 15.4369 14.5061 14.7493 14.5061Z" fill="#24262E"/>
</svg>
