<svg width="52" height="52" viewBox="0 0 52 52" fill="none" xmlns="http://www.w3.org/2000/svg">
<rect width="52" height="52" rx="26" fill="#3677F4"/>
<path d="M32.47 30.83L32.86 33.99C32.96 34.82 32.07 35.4 31.36 34.97L27.9 32.91C27.66 32.77 27.6 32.47 27.73 32.23C28.23 31.31 28.5 30.27 28.5 29.23C28.5 25.57 25.36 22.59 21.5 22.59C20.71 22.59 19.94 22.71 19.22 22.95C18.85 23.07 18.49 22.73 18.58 22.35C19.49 18.71 22.99 16 27.17 16C32.05 16 36 19.69 36 24.24C36 26.94 34.61 29.33 32.47 30.83Z" fill="white"/>
<path d="M27 29.23C27 30.42 26.56 31.52 25.82 32.39C24.83 33.59 23.26 34.36 21.5 34.36L18.89 35.91C18.45 36.18 17.89 35.81 17.95 35.3L18.2 33.33C16.86 32.4 16 30.91 16 29.23C16 27.47 16.94 25.92 18.38 25C19.27 24.42 20.34 24.09 21.5 24.09C24.54 24.09 27 26.39 27 29.23Z" fill="white"/>
</svg>
