<svg width="52" height="52" viewBox="0 0 52 52" fill="none" xmlns="http://www.w3.org/2000/svg">
<rect width="52" height="52" rx="26" fill="#3677F4"/>
<path d="M35 36H17C16.59 36 16.25 35.66 16.25 35.25C16.25 34.84 16.59 34.5 17 34.5H35C35.41 34.5 35.75 34.84 35.75 35.25C35.75 35.66 35.41 36 35 36Z" fill="white"/>
<path d="M33.02 17.48C31.08 15.54 29.18 15.49 27.19 17.48L25.98 18.69C25.88 18.79 25.84 18.95 25.88 19.09C26.64 21.74 28.76 23.86 31.41 24.62C31.45 24.63 31.49 24.64 31.53 24.64C31.64 24.64 31.74 24.6 31.82 24.52L33.02 23.31C34.01 22.33 34.49 21.38 34.49 20.42C34.5 19.43 34.02 18.47 33.02 17.48Z" fill="white"/>
<path d="M29.61 25.53C29.32 25.39 29.04 25.25 28.77 25.09C28.55 24.96 28.34 24.82 28.13 24.67C27.96 24.56 27.76 24.4 27.57 24.24C27.55 24.23 27.48 24.17 27.4 24.09C27.07 23.81 26.7 23.45 26.37 23.05C26.34 23.03 26.29 22.96 26.22 22.87C26.12 22.75 25.95 22.55 25.8 22.32C25.68 22.17 25.54 21.95 25.41 21.73C25.25 21.46 25.11 21.19 24.97 20.91C24.9488 20.8647 24.9283 20.8195 24.9085 20.7746C24.7609 20.4413 24.3262 20.3438 24.0685 20.6016L18.34 26.33C18.21 26.46 18.09 26.71 18.06 26.88L17.52 30.71C17.42 31.39 17.61 32.03 18.03 32.46C18.39 32.81 18.89 33 19.43 33C19.55 33 19.67 32.99 19.79 32.97L23.63 32.43C23.81 32.4 24.06 32.28 24.18 32.15L29.9013 26.4287C30.1609 26.1692 30.063 25.7237 29.7254 25.5797C29.6874 25.5634 29.6489 25.5469 29.61 25.53Z" fill="white"/>
</svg>
