<svg width="53" height="52" viewBox="0 0 53 52" fill="none" xmlns="http://www.w3.org/2000/svg">
<rect x="0.5" width="52" height="52" rx="26" fill="#3677F4"/>
<path d="M36.15 20.17C35.74 19.95 34.88 19.72 33.71 20.54L32.24 21.58C32.13 18.47 30.78 17.25 27.5 17.25H21.5C18.08 17.25 16.75 18.58 16.75 22V30C16.75 32.3 18 34.75 21.5 34.75H27.5C30.78 34.75 32.13 33.53 32.24 30.42L33.71 31.46C34.33 31.9 34.87 32.04 35.3 32.04C35.67 32.04 35.96 31.93 36.15 31.83C36.56 31.62 37.25 31.05 37.25 29.62V22.38C37.25 20.95 36.56 20.38 36.15 20.17ZM26 25.38C24.97 25.38 24.12 24.54 24.12 23.5C24.12 22.46 24.97 21.62 26 21.62C27.03 21.62 27.88 22.46 27.88 23.5C27.88 24.54 27.03 25.38 26 25.38Z" fill="white"/>
</svg>
