<svg width="386" height="68" viewBox="0 0 386 68" fill="none" xmlns="http://www.w3.org/2000/svg">
<path d="M-61 1L4.99854 67" stroke="#474A58" stroke-width="0.75" stroke-miterlimit="10" stroke-linecap="round" stroke-linejoin="round"/>
<path d="M-37.2515 1L28.7471 67" stroke="#474A58" stroke-width="0.75" stroke-miterlimit="10" stroke-linecap="round" stroke-linejoin="round"/>
<path d="M-13.5029 1L52.4972 67" stroke="#474A58" stroke-width="0.75" stroke-miterlimit="10" stroke-linecap="round" stroke-linejoin="round"/>
<path d="M10.2473 1L76.2458 67" stroke="#474A58" stroke-width="0.75" stroke-miterlimit="10" stroke-linecap="round" stroke-linejoin="round"/>
<path d="M33.9958 1L99.9944 67" stroke="#474A58" stroke-width="0.75" stroke-miterlimit="10" stroke-linecap="round" stroke-linejoin="round"/>
<path d="M57.7444 1L123.743 67" stroke="#474A58" stroke-width="0.75" stroke-miterlimit="10" stroke-linecap="round" stroke-linejoin="round"/>
<path d="M81.4929 1L147.493 67" stroke="#474A58" stroke-width="0.75" stroke-miterlimit="10" stroke-linecap="round" stroke-linejoin="round"/>
<path d="M105.243 1L171.242 67" stroke="#474A58" stroke-width="0.75" stroke-miterlimit="10" stroke-linecap="round" stroke-linejoin="round"/>
<path d="M128.992 1L194.99 67" stroke="#474A58" stroke-width="0.75" stroke-miterlimit="10" stroke-linecap="round" stroke-linejoin="round"/>
<path d="M152.74 1L218.739 67" stroke="#474A58" stroke-width="0.75" stroke-miterlimit="10" stroke-linecap="round" stroke-linejoin="round"/>
<path d="M176.489 1L242.487 67" stroke="#474A58" stroke-width="0.75" stroke-miterlimit="10" stroke-linecap="round" stroke-linejoin="round"/>
<path d="M200.237 1L266.237 67" stroke="#474A58" stroke-width="0.75" stroke-miterlimit="10" stroke-linecap="round" stroke-linejoin="round"/>
<path d="M223.987 1L289.986 67" stroke="#474A58" stroke-width="0.75" stroke-miterlimit="10" stroke-linecap="round" stroke-linejoin="round"/>
<path d="M247.736 1L313.735 67" stroke="#474A58" stroke-width="0.75" stroke-miterlimit="10" stroke-linecap="round" stroke-linejoin="round"/>
<path d="M271.485 1L337.483 67" stroke="#474A58" stroke-width="0.75" stroke-miterlimit="10" stroke-linecap="round" stroke-linejoin="round"/>
<path d="M295.233 1L361.233 67" stroke="#474A58" stroke-width="0.75" stroke-miterlimit="10" stroke-linecap="round" stroke-linejoin="round"/>
<path d="M318.983 1L384.982 67" stroke="#474A58" stroke-width="0.75" stroke-miterlimit="10" stroke-linecap="round" stroke-linejoin="round"/>
</svg>
