<svg width="371" height="68" viewBox="0 0 371 68" fill="none" xmlns="http://www.w3.org/2000/svg">
<path d="M-52.2515 1L13.7471 67" stroke="#474A58" stroke-width="0.75" stroke-miterlimit="10" stroke-linecap="round" stroke-linejoin="round"/>
<path d="M-28.5029 1L37.4972 67" stroke="#474A58" stroke-width="0.75" stroke-miterlimit="10" stroke-linecap="round" stroke-linejoin="round"/>
<path d="M-4.75275 1L61.2458 67" stroke="#474A58" stroke-width="0.75" stroke-miterlimit="10" stroke-linecap="round" stroke-linejoin="round"/>
<path d="M18.9958 1L84.9944 67" stroke="#474A58" stroke-width="0.75" stroke-miterlimit="10" stroke-linecap="round" stroke-linejoin="round"/>
<path d="M42.7444 1L108.743 67" stroke="#474A58" stroke-width="0.75" stroke-miterlimit="10" stroke-linecap="round" stroke-linejoin="round"/>
<path d="M66.4929 1L132.493 67" stroke="#474A58" stroke-width="0.75" stroke-miterlimit="10" stroke-linecap="round" stroke-linejoin="round"/>
<path d="M90.2431 1L156.242 67" stroke="#474A58" stroke-width="0.75" stroke-miterlimit="10" stroke-linecap="round" stroke-linejoin="round"/>
<path d="M113.992 1L179.99 67" stroke="#474A58" stroke-width="0.75" stroke-miterlimit="10" stroke-linecap="round" stroke-linejoin="round"/>
<path d="M137.74 1L203.739 67" stroke="#474A58" stroke-width="0.75" stroke-miterlimit="10" stroke-linecap="round" stroke-linejoin="round"/>
<path d="M161.489 1L227.487 67" stroke="#474A58" stroke-width="0.75" stroke-miterlimit="10" stroke-linecap="round" stroke-linejoin="round"/>
<path d="M185.237 1L251.237 67" stroke="#474A58" stroke-width="0.75" stroke-miterlimit="10" stroke-linecap="round" stroke-linejoin="round"/>
<path d="M208.987 1L274.986 67" stroke="#474A58" stroke-width="0.75" stroke-miterlimit="10" stroke-linecap="round" stroke-linejoin="round"/>
<path d="M232.736 1L298.735 67" stroke="#474A58" stroke-width="0.75" stroke-miterlimit="10" stroke-linecap="round" stroke-linejoin="round"/>
<path d="M256.485 1L322.483 67" stroke="#474A58" stroke-width="0.75" stroke-miterlimit="10" stroke-linecap="round" stroke-linejoin="round"/>
<path d="M280.233 1L346.233 67" stroke="#474A58" stroke-width="0.75" stroke-miterlimit="10" stroke-linecap="round" stroke-linejoin="round"/>
<path d="M303.983 1L369.982 67" stroke="#474A58" stroke-width="0.75" stroke-miterlimit="10" stroke-linecap="round" stroke-linejoin="round"/>
</svg>
